<?xml version="1.0" standalone="no"?>
<!DOCTYPE svg PUBLIC "-//W3C//DTD SVG 20010904//EN"
 "http://www.w3.org/TR/2001/REC-SVG-20010904/DTD/svg10.dtd">
<svg version="1.0" xmlns="http://www.w3.org/2000/svg"
 width="1010.000000pt" height="1010.000000pt" viewBox="0 0 1010.000000 1010.000000"
 preserveAspectRatio="xMidYMid meet">
<metadata>
Created by potrace 1.11, written by Peter Selinger 2001-2013
</metadata>
<g transform="translate(0.000000,1010.000000) scale(0.100000,-0.100000)"
fill="#000000" stroke="none">
<path d="M6888 10066 c-1 -2 -39 -6 -83 -10 -115 -9 -132 -12 -226 -41 -82
-26 -225 -96 -283 -139 -44 -32 -199 -187 -228 -226 -101 -140 -166 -321 -194
-536 -2 -23 -7 -53 -9 -65 -3 -13 -16 -98 -30 -189 -31 -200 -33 -211 -45
-280 -5 -30 -12 -75 -15 -100 -3 -25 -8 -58 -11 -75 -9 -54 -15 -90 -20 -120
-2 -16 -7 -41 -9 -55 -3 -14 -7 -45 -10 -70 -3 -25 -10 -67 -15 -95 -5 -27
-12 -68 -15 -90 -3 -22 -12 -80 -20 -130 -8 -49 -19 -124 -26 -165 -6 -41 -13
-82 -14 -90 -1 -8 -5 -33 -9 -55 -3 -22 -19 -125 -36 -230 -16 -104 -32 -208
-35 -230 -3 -22 -10 -65 -15 -95 -5 -30 -12 -73 -15 -95 -3 -23 -8 -52 -10
-65 -3 -14 -12 -70 -20 -125 -9 -55 -18 -111 -20 -125 -2 -14 -14 -86 -25
-160 -11 -74 -23 -146 -25 -160 -16 -97 -37 -231 -41 -259 -2 -19 -6 -46 -9
-60 -2 -14 -14 -87 -25 -161 -11 -74 -23 -146 -25 -160 -2 -14 -7 -43 -10 -65
-3 -22 -8 -51 -10 -65 -6 -33 -11 -61 -35 -220 -11 -74 -34 -216 -50 -315 -16
-99 -32 -200 -35 -225 -3 -25 -10 -70 -15 -100 -11 -64 -15 -91 -30 -185 -6
-38 -13 -83 -16 -100 -9 -55 -13 -80 -19 -125 -3 -25 -8 -52 -10 -60 -3 -8 -7
-35 -10 -60 -5 -43 -9 -70 -20 -135 -3 -16 -10 -61 -15 -100 -6 -38 -12 -77
-15 -85 -2 -8 -6 -35 -9 -60 -3 -25 -10 -67 -15 -95 -5 -27 -12 -75 -16 -105
-4 -30 -8 -57 -10 -60 -2 -3 -6 -29 -10 -59 -4 -30 -9 -63 -11 -75 -2 -12 -7
-39 -9 -61 -3 -22 -12 -78 -20 -125 -8 -47 -17 -103 -20 -125 -3 -23 -7 -50
-9 -62 -3 -11 -7 -36 -10 -54 -40 -263 -58 -378 -61 -399 -2 -14 -7 -43 -10
-65 -3 -22 -12 -78 -20 -125 -8 -47 -17 -105 -20 -130 -3 -25 -7 -52 -10 -60
-2 -8 -7 -40 -10 -70 -4 -30 -8 -57 -10 -60 -2 -3 -8 -41 -14 -85 -6 -44 -13
-91 -16 -105 -2 -14 -6 -43 -10 -64 -3 -21 -7 -48 -10 -60 -2 -12 -7 -39 -10
-61 -5 -35 -13 -89 -31 -200 -2 -16 -6 -41 -9 -55 -2 -14 -7 -43 -10 -65 -3
-22 -11 -78 -19 -125 -53 -324 39 -633 258 -866 62 -66 184 -164 205 -164 6 0
11 -4 11 -8 0 -9 109 -61 200 -95 48 -18 83 -21 282 -25 207 -3 233 -2 305 18
92 25 226 90 309 150 123 89 265 259 316 379 11 25 26 60 33 76 26 59 49 163
80 370 9 60 25 167 30 194 5 31 18 111 20 131 1 8 5 31 8 50 4 19 9 53 12 75
3 22 12 78 20 125 8 47 17 104 20 128 3 24 7 53 10 65 2 12 7 39 10 60 11 82
16 113 21 127 2 8 6 38 9 65 3 28 8 57 10 65 3 8 7 35 10 60 6 46 8 61 25 160
5 30 12 75 15 100 3 25 10 68 15 95 5 28 14 86 21 130 6 44 12 87 14 95 3 17
14 90 21 135 2 17 7 42 10 57 3 15 7 39 9 55 2 15 13 89 25 163 24 149 37 232
54 350 4 25 11 70 16 100 5 30 12 73 15 95 3 22 12 78 20 125 8 47 17 103 20
125 3 23 7 50 9 62 3 12 8 43 11 70 4 26 18 113 30 193 13 80 26 163 30 185 3
23 7 50 9 62 3 12 8 43 12 70 3 26 8 57 10 68 2 11 7 40 10 65 3 25 7 52 9 60
2 8 7 35 10 60 7 51 12 82 25 160 5 30 12 73 15 94 3 21 7 48 10 60 2 12 7 39
9 61 3 22 13 83 21 135 8 52 22 138 30 190 18 117 26 168 30 189 1 9 6 36 9
61 10 67 36 228 46 290 5 30 12 71 14 90 3 19 19 123 36 230 18 107 34 211 36
230 3 19 11 73 19 120 7 47 16 102 19 123 11 67 17 111 32 207 9 52 17 108 19
123 2 16 6 40 9 55 3 15 8 43 10 62 2 19 9 62 15 95 12 67 15 85 31 200 7 44
14 89 16 100 2 10 6 37 9 60 3 22 10 65 15 95 14 80 41 251 45 280 2 14 13 84
24 155 11 72 23 148 26 170 3 22 8 51 10 65 5 26 7 39 24 150 6 36 13 83 17
105 26 157 31 213 29 315 -4 162 -32 274 -108 428 -22 45 -44 82 -49 82 -4 0
-8 5 -8 11 0 11 -45 70 -100 133 -50 55 -169 149 -244 191 -73 41 -210 93
-264 101 -20 3 -43 7 -50 9 -7 3 -40 7 -75 10 -34 4 -67 8 -74 10 -6 2 -13 2
-15 1z"/>
<path d="M949 10056 c-2 -2 -26 -6 -54 -9 -127 -15 -320 -94 -435 -179 -173
-128 -317 -334 -370 -531 -30 -111 -32 -124 -36 -252 -4 -135 10 -223 71 -430
20 -66 38 -127 40 -135 7 -31 75 -267 95 -335 11 -38 22 -77 24 -85 6 -22 89
-316 158 -555 33 -115 64 -225 69 -242 5 -18 13 -48 18 -65 6 -18 18 -64 29
-103 11 -38 43 -151 72 -250 28 -99 58 -202 65 -230 14 -50 238 -836 321
-1125 24 -85 46 -164 49 -175 2 -11 14 -51 25 -90 12 -38 23 -77 25 -85 2 -8
18 -64 35 -125 17 -60 34 -119 37 -130 3 -11 22 -78 43 -150 20 -71 47 -166
60 -210 12 -44 26 -93 31 -110 20 -67 53 -181 55 -191 1 -6 10 -38 20 -70 9
-33 18 -64 20 -70 1 -6 10 -38 20 -70 9 -33 18 -63 20 -69 1 -5 27 -98 57
-205 31 -107 101 -355 157 -550 56 -195 103 -363 105 -373 2 -9 6 -21 9 -25 3
-5 7 -19 10 -33 3 -13 19 -71 36 -129 17 -58 33 -112 35 -120 1 -8 24 -89 49
-180 67 -235 77 -272 86 -300 5 -14 23 -77 40 -140 18 -63 43 -151 55 -195 43
-145 237 -829 240 -845 9 -40 58 -201 77 -255 101 -279 324 -496 623 -607 54
-19 84 -22 282 -26 261 -4 320 6 475 83 173 86 306 207 416 380 24 37 70 141
91 201 60 180 65 390 12 584 -41 155 -66 241 -91 325 -12 39 -23 77 -25 87 -4
17 -138 489 -231 813 -91 319 -165 579 -169 595 -2 8 -20 71 -40 140 -20 69
-38 132 -40 140 -3 15 -184 649 -295 1035 -34 116 -63 219 -65 230 -6 26 -65
233 -75 265 -5 14 -31 106 -59 205 -28 99 -83 290 -122 425 -38 135 -71 252
-73 260 -2 8 -10 35 -17 60 -7 25 -13 50 -15 55 -1 6 -18 66 -39 135 -20 69
-38 132 -40 140 -5 22 -104 370 -115 405 -6 17 -42 143 -81 280 -38 138 -97
345 -130 460 -34 116 -63 217 -65 225 -5 23 -56 205 -114 405 -29 99 -58 205
-66 235 -8 30 -23 84 -34 120 -20 66 -80 273 -105 365 -68 247 -200 702 -217
750 -113 312 -384 551 -715 631 -60 14 -313 30 -324 20z"/>
<path d="M9028 9936 c-1 -2 -28 -6 -58 -10 -63 -7 -182 -43 -255 -77 -306
-143 -517 -419 -571 -749 -21 -126 -20 -8176 1 -8291 43 -242 170 -455 362
-609 42 -34 84 -65 92 -68 9 -3 18 -9 21 -12 7 -10 131 -68 198 -92 50 -19 83
-22 284 -26 208 -3 233 -2 305 18 92 25 236 95 313 152 123 91 261 257 312
377 11 25 26 60 33 76 7 17 18 48 24 70 8 29 11 1248 11 4268 l0 4228 -21 62
c-117 352 -415 608 -782 671 -71 12 -259 20 -269 12z"/>
</g>
</svg>
