<svg xmlns="http://www.w3.org/2000/svg">
  <defs>
    <symbol viewBox="0 0 48 48" id="icon-chat-message">
      <path fill="#3dd9eb" d="M11 44V31l12 6z"/>
      <path fill="#00b3d7" d="M11 35.102a19.244 19.244 0 007.981 4.242L23 37l-12-6v4.102z"/>
      <path fill="#c2ffff" d="M15.043 15H33v3H15.043zM15.043 27H30v3H15.043zM15 21h10v3H15z"/>
      <ellipse cx="24" cy="22" fill="#3dd9eb" rx="19" ry="18"/>
    </symbol>
    <symbol viewBox="0 0 48 48" id="icon-github">
      <path fill="#2100c4" d="M24 4C12.954 4 4 12.954 4 24c0 8.887 5.801 16.411 13.82 19.016h12.36C38.199 40.411 44 32.887 44 24c0-11.046-8.954-20-20-20z"/>
      <path fill="#ddbaff" d="M37 23.5c0-2.897-.875-4.966-2.355-6.424.946-1.682-.306-5.076-.306-5.076-2.5.5-4.367 1.5-5.609 2.376C27.262 14.115 25.671 14 24 14c-1.71 0-3.339.118-4.834.393-1.242-.879-3.115-1.889-5.632-2.393 0 0-1.284 3.492-.255 5.146C11.843 18.6 11 20.651 11 23.5c0 6.122 3.879 8.578 9.209 9.274C19.466 33.647 19 34.764 19 36v.305a3.763 3.763 0 01-.514.108c-1.107.143-2.271 0-2.833-.333-.562-.333-1.229-1.083-1.729-1.813-.422-.616-1.263-2.032-3.416-1.979a.487.487 0 00-.5.563c.043.194.213.5.896.75.685.251 1.063.854 1.438 1.458.418.674.417 2.468 2.562 3.416 1.53.677 2.988.594 4.097.327l.001 3.199c0 .639-.585 1.125-1.191 1.013 1.944.654 4.022.986 6.189.986 2.166 0 4.243-.332 6.19-.984-.606.111-1.19-.375-1.19-1.014V36c0-1.236-.466-2.353-1.209-3.226C33.121 32.078 37 29.622 37 23.5z"/>
      <path fill="#ddbaff" d="M15 18l3.838-1.279c1.01-.337 1.231-1.684.365-2.302l-.037-.026c-2.399.44-4.445 1.291-5.888 2.753.318.512.851.854 1.722.854zM28.693 14.402c-.878.623-.655 1.987.366 2.327L32.872 18c.913 0 1.461-.37 1.773-.924-1.46-1.438-3.513-2.274-5.915-2.701a1.186 1.186 0 00-.037.027zM24 31c-1.525 0-2.874.697-3.791 1.774 1.2.157 2.472.226 3.791.226s2.591-.069 3.791-.226C26.874 31.697 25.525 31 24 31z"/>
    </symbol>
    <symbol viewBox="0 0 48 48" id="icon-heart-rainbow">
      <path fill="#f55376" d="M43.88 19.37c-.02.38-.06.75-.11 1.13a12.45 12.45 0 01-1.53 4.5 12.37 12.37 0 01-2.97 3.52l-1.1.98-2.56 2.25L33.06 34l-2.27 2-2.83 2.5L24 41.98l-3.96-3.48-2.83-2.5-2.27-2-2.55-2.25-2.56-2.25-1.1-.98A12.37 12.37 0 015.76 25a12.45 12.45 0 01-1.53-4.5c-.05-.38-.09-.75-.11-1.13-.02-.25-.02-.5-.02-.75 0-.89.09-1.76.28-2.62.25-1.18.66-2.32 1.22-3.38.21-.38.44-.76.68-1.12C7.59 9.55 9.44 7.96 11.71 7c.29-.12.58-.25.88-.35 2.94-.99 5.98-.78 8.64.35.98.42 1.92.96 2.77 1.63.85-.67 1.79-1.21 2.77-1.63 2.66-1.13 5.7-1.34 8.64-.35.3.1.59.23.88.35 2.27.96 4.12 2.55 5.43 4.5.24.36.47.74.68 1.12.56 1.06.97 2.2 1.22 3.38.24 1.1.33 2.23.26 3.37z"/>
      <path fill="#f55376" d="M42.4 12.62H5.6c.21-.38.44-.76.68-1.12C7.59 9.55 9.44 7.96 11.71 7c.29-.12.58-.25.88-.35 2.94-.99 5.98-.78 8.64.35.98.42 1.92.96 2.77 1.63.85-.67 1.79-1.21 2.77-1.63 2.66-1.13 5.7-1.34 8.64-.35.3.1.59.23.88.35 2.27.96 4.12 2.55 5.43 4.5.24.36.47.74.68 1.12z"/>
      <path fill="#f5bc00" d="M28.82 19.37v.005H4.118c.021.375.057.749.111 1.125.103.71.253 1.42.481 2.125.273.844.629 1.635 1.048 2.375H42.24a12.45 12.45 0 001.53-4.5c.05-.38.09-.75.11-1.13H28.82z"/>
      <path fill="#00b569" d="M27.743 25H5.758a12.51 12.51 0 002.968 3.523l1.108.977 2.552 2.25H35.61l2.56-2.25 1.1-.98A12.37 12.37 0 0042.24 25H27.743z"/>
      <path fill="#6c19ff" d="M12.39 31.75L14.94 34l2.27 2h13.58l2.27-2 2.55-2.25H12.39z"/>
      <path fill="#a64aff" d="M30.79 36l-2.83 2.5L24 41.98l-3.96-3.48-2.83-2.5z"/>
      <path fill="#eb7900" d="M43.62 16c-.25-1.18-.66-2.32-1.22-3.38H5.6c-.56 1.06-.97 2.2-1.22 3.38h-.004a12.788 12.788 0 00-.258 3.375h24.703v-.005h15.06c.069-1.14-.021-2.27-.261-3.37z"/>
    </symbol>
    <symbol viewBox="0 0 48 48" id="icon-linkedin">
      <path fill="#3dd9eb" d="M42 37a5 5 0 01-5 5H11a5 5 0 01-5-5V11a5 5 0 015-5h26a5 5 0 015 5v26z"/>
      <path fill="#c2ffff" d="M12 19h5v17h-5zM14.485 17h-.028C12.965 17 12 15.888 12 14.499 12 13.08 12.995 12 14.514 12c1.521 0 2.458 1.08 2.486 2.499C17 15.887 16.035 17 14.485 17zM36 36l-.001-9.726c0-5.024-2.683-7.274-6.261-7.274A6.74 6.74 0 0025 20.938V19h-5v17h5V25.187l.002.001c.394-.978 1.305-1.985 2.806-1.985 1.967 0 3.192 1.5 3.192 3.698V36h5z"/>
    </symbol>
  </defs>
</svg>